<svg width="640" height="512" viewBox="0 0 640 512" fill="none" xmlns="http://www.w3.org/2000/svg">
<path d="M184 88C184 118.9 158.9 144 128 144C97.1 144 72 118.9 72 88C72 57.1 97.1 32 128 32C158.9 32 184 57.1 184 88ZM64 245.7C54 256.9 48 271.8 48 288C48 304.2 54 319.1 64 330.3V245.7V245.7ZM208.4 196.4C178.7 222.7 160 261.2 160 304C160 338.3 172 369.8 192 394.5V416C192 433.7 177.7 448 160 448H96C78.3 448 64 433.7 64 416V389.2C26.2 371.2 0 332.7 0 288C0 226.1 50.1 176 112 176H144C168 176 190.2 183.5 208.4 196.3V196.4ZM448 416V394.5C468 369.8 480 338.3 480 304C480 261.2 461.3 222.7 431.6 196.3C449.8 183.5 472 176 496 176H528C589.9 176 640 226.1 640 288C640 332.7 613.8 371.2 576 389.2V416C576 433.7 561.7 448 544 448H480C462.3 448 448 433.7 448 416ZM568 88C568 118.9 542.9 144 512 144C481.1 144 456 118.9 456 88C456 57.1 481.1 32 512 32C542.9 32 568 57.1 568 88ZM576 245.7V330.4C586 319.1 592 304.3 592 288.1C592 271.9 586 257 576 245.8V245.7ZM320 160C284.7 160 256 131.3 256 96C256 60.7 284.7 32 320 32C355.3 32 384 60.7 384 96C384 131.3 355.3 160 320 160ZM240 304C240 320.2 246 335 256 346.3V261.7C246 273 240 287.8 240 304V304ZM384 261.7V346.4C394 335.1 400 320.3 400 304.1C400 287.9 394 273 384 261.8V261.7ZM448 304C448 348.7 421.8 387.2 384 405.2V448C384 465.7 369.7 480 352 480H288C270.3 480 256 465.7 256 448V405.2C218.2 387.2 192 348.7 192 304C192 242.1 242.1 192 304 192H336C397.9 192 448 242.1 448 304Z" fill="#FFC700"/>
</svg>
